<mxfile host="app.diagrams.net" modified="2023-06-10T20:13:25.894Z" agent="Mozilla/5.0 (Windows NT 10.0; Win64; x64) AppleWebKit/537.36 (KHTML, like Gecko) Chrome/112.0.0.0 YaBrowser/23.5.1.714 Yowser/2.5 Safari/537.36" etag="8hCUM0QpEjeQDrTL66_Y" version="21.3.8" type="device">
  <diagram name="Page-1" id="58cdce13-f638-feb5-8d6f-7d28b1aa9fa0">
    <mxGraphModel dx="1155" dy="659" grid="0" gridSize="10" guides="1" tooltips="1" connect="1" arrows="1" fold="1" page="1" pageScale="1" pageWidth="1100" pageHeight="850" background="none" math="0" shadow="0">
      <root>
        <mxCell id="0" />
        <mxCell id="1" parent="0" />
        <mxCell id="sVxQKzLlVZntFnR0pCck-2" value="" style="rounded=1;whiteSpace=wrap;html=1;" vertex="1" parent="1">
          <mxGeometry x="440" y="20" width="439" height="240" as="geometry" />
        </mxCell>
        <mxCell id="sVxQKzLlVZntFnR0pCck-5" value="" style="rounded=1;whiteSpace=wrap;html=1;" vertex="1" parent="1">
          <mxGeometry x="170" y="260" width="270" height="330" as="geometry" />
        </mxCell>
        <mxCell id="382b91b5511bd0f7-1" value="" style="ellipse;html=1;shape=startState;fillColor=#000000;strokeColor=#000000;rounded=1;shadow=0;comic=0;labelBackgroundColor=none;fontFamily=Verdana;fontSize=12;fontColor=#000000;align=center;direction=south;" parent="1" vertex="1">
          <mxGeometry x="295" y="10" width="30" height="30" as="geometry" />
        </mxCell>
        <mxCell id="2a3bc250acf0617d-9" style="edgeStyle=orthogonalEdgeStyle;html=1;labelBackgroundColor=none;endArrow=open;endSize=8;strokeColor=#000000;fontFamily=Verdana;fontSize=12;align=left;entryX=0.5;entryY=0;entryDx=0;entryDy=0;" parent="1" source="382b91b5511bd0f7-1" target="sVxQKzLlVZntFnR0pCck-1" edge="1">
          <mxGeometry relative="1" as="geometry">
            <mxPoint x="300" y="120" as="targetPoint" />
            <Array as="points">
              <mxPoint x="310" y="50" />
              <mxPoint x="310" y="50" />
            </Array>
          </mxGeometry>
        </mxCell>
        <mxCell id="sVxQKzLlVZntFnR0pCck-12" style="edgeStyle=orthogonalEdgeStyle;rounded=0;orthogonalLoop=1;jettySize=auto;html=1;exitX=0.5;exitY=1;exitDx=0;exitDy=0;entryX=0.5;entryY=0;entryDx=0;entryDy=0;" edge="1" parent="1" source="sVxQKzLlVZntFnR0pCck-1" target="sVxQKzLlVZntFnR0pCck-10">
          <mxGeometry relative="1" as="geometry" />
        </mxCell>
        <mxCell id="sVxQKzLlVZntFnR0pCck-21" style="edgeStyle=orthogonalEdgeStyle;rounded=0;orthogonalLoop=1;jettySize=auto;html=1;exitX=1;exitY=0.5;exitDx=0;exitDy=0;entryX=0;entryY=0.5;entryDx=0;entryDy=0;" edge="1" parent="1" source="sVxQKzLlVZntFnR0pCck-1" target="sVxQKzLlVZntFnR0pCck-15">
          <mxGeometry relative="1" as="geometry" />
        </mxCell>
        <mxCell id="sVxQKzLlVZntFnR0pCck-1" value="Ожидание команд" style="rounded=1;whiteSpace=wrap;html=1;" vertex="1" parent="1">
          <mxGeometry x="250" y="90" width="120" height="60" as="geometry" />
        </mxCell>
        <mxCell id="sVxQKzLlVZntFnR0pCck-17" style="edgeStyle=orthogonalEdgeStyle;rounded=0;orthogonalLoop=1;jettySize=auto;html=1;exitX=0.5;exitY=1;exitDx=0;exitDy=0;entryX=0.5;entryY=0;entryDx=0;entryDy=0;" edge="1" parent="1" source="sVxQKzLlVZntFnR0pCck-3" target="sVxQKzLlVZntFnR0pCck-11">
          <mxGeometry relative="1" as="geometry" />
        </mxCell>
        <mxCell id="sVxQKzLlVZntFnR0pCck-40" style="edgeStyle=orthogonalEdgeStyle;rounded=0;orthogonalLoop=1;jettySize=auto;html=1;exitX=0;exitY=0.5;exitDx=0;exitDy=0;entryX=0;entryY=0.5;entryDx=0;entryDy=0;dashed=1;dashPattern=8 8;" edge="1" parent="1" source="sVxQKzLlVZntFnR0pCck-3" target="sVxQKzLlVZntFnR0pCck-1">
          <mxGeometry relative="1" as="geometry">
            <Array as="points">
              <mxPoint x="30" y="395" />
              <mxPoint x="30" y="120" />
            </Array>
          </mxGeometry>
        </mxCell>
        <mxCell id="sVxQKzLlVZntFnR0pCck-3" value="Опрос датчиков" style="rounded=1;whiteSpace=wrap;html=1;" vertex="1" parent="1">
          <mxGeometry x="270" y="365" width="120" height="60" as="geometry" />
        </mxCell>
        <mxCell id="sVxQKzLlVZntFnR0pCck-23" style="edgeStyle=orthogonalEdgeStyle;rounded=0;orthogonalLoop=1;jettySize=auto;html=1;exitX=0;exitY=0.5;exitDx=0;exitDy=0;entryX=1;entryY=0.25;entryDx=0;entryDy=0;" edge="1" parent="1" source="sVxQKzLlVZntFnR0pCck-4" target="sVxQKzLlVZntFnR0pCck-1">
          <mxGeometry relative="1" as="geometry" />
        </mxCell>
        <mxCell id="sVxQKzLlVZntFnR0pCck-25" style="edgeStyle=orthogonalEdgeStyle;rounded=0;orthogonalLoop=1;jettySize=auto;html=1;exitX=1;exitY=0.5;exitDx=0;exitDy=0;entryX=0.5;entryY=1;entryDx=0;entryDy=0;" edge="1" parent="1" source="sVxQKzLlVZntFnR0pCck-4" target="sVxQKzLlVZntFnR0pCck-24">
          <mxGeometry relative="1" as="geometry" />
        </mxCell>
        <mxCell id="sVxQKzLlVZntFnR0pCck-4" value="Обработка результатов модулями" style="rounded=1;whiteSpace=wrap;html=1;" vertex="1" parent="1">
          <mxGeometry x="590" y="120" width="120" height="60" as="geometry" />
        </mxCell>
        <mxCell id="sVxQKzLlVZntFnR0pCck-7" value="Опрос датчиков и обработка результатов модулями" style="text;html=1;strokeColor=none;fillColor=none;align=center;verticalAlign=middle;whiteSpace=wrap;rounded=0;" vertex="1" parent="1">
          <mxGeometry x="440" y="24" width="230" height="30" as="geometry" />
        </mxCell>
        <mxCell id="sVxQKzLlVZntFnR0pCck-9" value="Управление модулем" style="text;html=1;strokeColor=none;fillColor=none;align=center;verticalAlign=middle;whiteSpace=wrap;rounded=0;" vertex="1" parent="1">
          <mxGeometry x="260" y="550" width="130" height="30" as="geometry" />
        </mxCell>
        <mxCell id="sVxQKzLlVZntFnR0pCck-16" style="edgeStyle=orthogonalEdgeStyle;rounded=0;orthogonalLoop=1;jettySize=auto;html=1;exitX=0.5;exitY=1;exitDx=0;exitDy=0;entryX=0.5;entryY=0;entryDx=0;entryDy=0;" edge="1" parent="1" source="sVxQKzLlVZntFnR0pCck-10" target="sVxQKzLlVZntFnR0pCck-3">
          <mxGeometry relative="1" as="geometry" />
        </mxCell>
        <mxCell id="sVxQKzLlVZntFnR0pCck-20" style="edgeStyle=orthogonalEdgeStyle;rounded=0;orthogonalLoop=1;jettySize=auto;html=1;exitX=0;exitY=0.25;exitDx=0;exitDy=0;entryX=0;entryY=0.5;entryDx=0;entryDy=0;" edge="1" parent="1" source="sVxQKzLlVZntFnR0pCck-10" target="sVxQKzLlVZntFnR0pCck-1">
          <mxGeometry relative="1" as="geometry">
            <Array as="points">
              <mxPoint x="160" y="285" />
              <mxPoint x="160" y="120" />
            </Array>
          </mxGeometry>
        </mxCell>
        <mxCell id="sVxQKzLlVZntFnR0pCck-41" style="edgeStyle=orthogonalEdgeStyle;rounded=0;orthogonalLoop=1;jettySize=auto;html=1;exitX=0;exitY=0.5;exitDx=0;exitDy=0;entryX=0;entryY=0.5;entryDx=0;entryDy=0;dashed=1;dashPattern=8 8;" edge="1" parent="1" source="sVxQKzLlVZntFnR0pCck-10" target="sVxQKzLlVZntFnR0pCck-1">
          <mxGeometry relative="1" as="geometry">
            <Array as="points">
              <mxPoint x="30" y="300" />
              <mxPoint x="30" y="120" />
            </Array>
          </mxGeometry>
        </mxCell>
        <mxCell id="sVxQKzLlVZntFnR0pCck-10" value="выполнение команды" style="rounded=1;whiteSpace=wrap;html=1;" vertex="1" parent="1">
          <mxGeometry x="270" y="270" width="120" height="60" as="geometry" />
        </mxCell>
        <mxCell id="sVxQKzLlVZntFnR0pCck-18" style="edgeStyle=orthogonalEdgeStyle;rounded=0;orthogonalLoop=1;jettySize=auto;html=1;exitX=0;exitY=0.5;exitDx=0;exitDy=0;entryX=0;entryY=0.5;entryDx=0;entryDy=0;" edge="1" parent="1" source="sVxQKzLlVZntFnR0pCck-11" target="sVxQKzLlVZntFnR0pCck-10">
          <mxGeometry relative="1" as="geometry">
            <Array as="points">
              <mxPoint x="260" y="490" />
              <mxPoint x="260" y="300" />
            </Array>
          </mxGeometry>
        </mxCell>
        <mxCell id="sVxQKzLlVZntFnR0pCck-19" style="edgeStyle=orthogonalEdgeStyle;rounded=0;orthogonalLoop=1;jettySize=auto;html=1;exitX=0.5;exitY=1;exitDx=0;exitDy=0;entryX=0;entryY=0.5;entryDx=0;entryDy=0;" edge="1" parent="1" source="sVxQKzLlVZntFnR0pCck-11" target="sVxQKzLlVZntFnR0pCck-1">
          <mxGeometry relative="1" as="geometry">
            <Array as="points">
              <mxPoint x="330" y="540" />
              <mxPoint x="140" y="540" />
              <mxPoint x="140" y="120" />
            </Array>
          </mxGeometry>
        </mxCell>
        <mxCell id="sVxQKzLlVZntFnR0pCck-39" style="edgeStyle=orthogonalEdgeStyle;rounded=0;orthogonalLoop=1;jettySize=auto;html=1;exitX=0;exitY=0.5;exitDx=0;exitDy=0;entryX=0;entryY=0.5;entryDx=0;entryDy=0;dashed=1;dashPattern=8 8;" edge="1" parent="1" source="sVxQKzLlVZntFnR0pCck-11" target="sVxQKzLlVZntFnR0pCck-1">
          <mxGeometry relative="1" as="geometry">
            <Array as="points">
              <mxPoint x="30" y="490" />
              <mxPoint x="30" y="120" />
            </Array>
          </mxGeometry>
        </mxCell>
        <mxCell id="sVxQKzLlVZntFnR0pCck-11" value="обработка данных" style="rounded=1;whiteSpace=wrap;html=1;" vertex="1" parent="1">
          <mxGeometry x="270" y="460" width="120" height="60" as="geometry" />
        </mxCell>
        <mxCell id="sVxQKzLlVZntFnR0pCck-22" style="edgeStyle=orthogonalEdgeStyle;rounded=0;orthogonalLoop=1;jettySize=auto;html=1;exitX=1;exitY=0.5;exitDx=0;exitDy=0;entryX=0.5;entryY=1;entryDx=0;entryDy=0;" edge="1" parent="1" source="sVxQKzLlVZntFnR0pCck-15" target="sVxQKzLlVZntFnR0pCck-4">
          <mxGeometry relative="1" as="geometry" />
        </mxCell>
        <mxCell id="sVxQKzLlVZntFnR0pCck-15" value="Опрос датчиков" style="rounded=1;whiteSpace=wrap;html=1;" vertex="1" parent="1">
          <mxGeometry x="470" y="180" width="120" height="60" as="geometry" />
        </mxCell>
        <mxCell id="sVxQKzLlVZntFnR0pCck-26" style="edgeStyle=orthogonalEdgeStyle;rounded=0;orthogonalLoop=1;jettySize=auto;html=1;exitX=0;exitY=0.5;exitDx=0;exitDy=0;entryX=0.5;entryY=0;entryDx=0;entryDy=0;" edge="1" parent="1" source="sVxQKzLlVZntFnR0pCck-24" target="sVxQKzLlVZntFnR0pCck-4">
          <mxGeometry relative="1" as="geometry" />
        </mxCell>
        <mxCell id="sVxQKzLlVZntFnR0pCck-24" value="Выполнение действий" style="rounded=1;whiteSpace=wrap;html=1;" vertex="1" parent="1">
          <mxGeometry x="749" y="33" width="120" height="60" as="geometry" />
        </mxCell>
        <mxCell id="sVxQKzLlVZntFnR0pCck-27" value="Поступила команда" style="text;html=1;strokeColor=none;fillColor=none;align=center;verticalAlign=middle;whiteSpace=wrap;rounded=0;" vertex="1" parent="1">
          <mxGeometry x="240" y="170" width="60" height="30" as="geometry" />
        </mxCell>
        <mxCell id="sVxQKzLlVZntFnR0pCck-28" value="Запрос данных по таймеру" style="text;html=1;strokeColor=none;fillColor=none;align=center;verticalAlign=middle;whiteSpace=wrap;rounded=0;" vertex="1" parent="1">
          <mxGeometry x="360" y="160" width="60" height="30" as="geometry" />
        </mxCell>
        <mxCell id="sVxQKzLlVZntFnR0pCck-29" value="Данные получены" style="text;html=1;strokeColor=none;fillColor=none;align=center;verticalAlign=middle;whiteSpace=wrap;rounded=0;" vertex="1" parent="1">
          <mxGeometry x="600" y="210" width="60" height="30" as="geometry" />
        </mxCell>
        <mxCell id="sVxQKzLlVZntFnR0pCck-30" value="Требуются дополнительные действия" style="text;html=1;strokeColor=none;fillColor=none;align=center;verticalAlign=middle;whiteSpace=wrap;rounded=0;" vertex="1" parent="1">
          <mxGeometry x="741" y="160" width="60" height="30" as="geometry" />
        </mxCell>
        <mxCell id="sVxQKzLlVZntFnR0pCck-31" value="Действия не требуются" style="text;html=1;strokeColor=none;fillColor=none;align=center;verticalAlign=middle;whiteSpace=wrap;rounded=0;" vertex="1" parent="1">
          <mxGeometry x="500" y="120" width="80" height="30" as="geometry" />
        </mxCell>
        <mxCell id="sVxQKzLlVZntFnR0pCck-32" value="Дополнительные действия завершены" style="text;html=1;strokeColor=none;fillColor=none;align=center;verticalAlign=middle;whiteSpace=wrap;rounded=0;" vertex="1" parent="1">
          <mxGeometry x="650" y="74" width="99" height="30" as="geometry" />
        </mxCell>
        <mxCell id="sVxQKzLlVZntFnR0pCck-33" value="Команда на опрос датчиков" style="text;html=1;strokeColor=none;fillColor=none;align=center;verticalAlign=middle;whiteSpace=wrap;rounded=0;" vertex="1" parent="1">
          <mxGeometry x="340" y="330" width="90" height="30" as="geometry" />
        </mxCell>
        <mxCell id="sVxQKzLlVZntFnR0pCck-34" value="Данные получены" style="text;html=1;strokeColor=none;fillColor=none;align=center;verticalAlign=middle;whiteSpace=wrap;rounded=0;" vertex="1" parent="1">
          <mxGeometry x="330" y="425" width="90" height="30" as="geometry" />
        </mxCell>
        <mxCell id="sVxQKzLlVZntFnR0pCck-35" value="Требуются дальнейшие действия" style="text;html=1;strokeColor=none;fillColor=none;align=center;verticalAlign=middle;whiteSpace=wrap;rounded=0;" vertex="1" parent="1">
          <mxGeometry x="170" y="395" width="90" height="30" as="geometry" />
        </mxCell>
        <mxCell id="sVxQKzLlVZntFnR0pCck-36" value="Команда выполнена" style="text;html=1;strokeColor=none;fillColor=none;align=center;verticalAlign=middle;whiteSpace=wrap;rounded=0;" vertex="1" parent="1">
          <mxGeometry x="160" y="200" width="60" height="30" as="geometry" />
        </mxCell>
        <mxCell id="sVxQKzLlVZntFnR0pCck-38" value="Команда выполнена" style="text;html=1;strokeColor=none;fillColor=none;align=center;verticalAlign=middle;whiteSpace=wrap;rounded=0;" vertex="1" parent="1">
          <mxGeometry x="70" y="340" width="60" height="30" as="geometry" />
        </mxCell>
        <mxCell id="sVxQKzLlVZntFnR0pCck-42" value="Команда аварийной остановки" style="text;html=1;strokeColor=none;fillColor=none;align=center;verticalAlign=middle;whiteSpace=wrap;rounded=0;" vertex="1" parent="1">
          <mxGeometry x="40" y="170" width="60" height="30" as="geometry" />
        </mxCell>
      </root>
    </mxGraphModel>
  </diagram>
</mxfile>
